<svg xmlns="http://www.w3.org/2000/svg" width="1024" height="1024" viewBox="0 0 1024 1024" version="1.1"><path d="M 650 48.457 C 628.935 51.152, 593.579 63.054, 585.147 70.289 C 584.241 71.067, 579 74.110, 573.500 77.051 C 568 79.992, 561.475 84.253, 559 86.518 C 556.525 88.784, 552.473 91.798, 549.996 93.217 C 545.357 95.873, 514.316 125.997, 511.264 130.804 C 510.322 132.287, 506.508 137.179, 502.788 141.676 C 499.067 146.173, 494.482 152.484, 492.597 155.699 C 490.712 158.915, 487.612 163.861, 485.708 166.690 C 479.091 176.524, 464.079 208.496, 459.548 222.406 C 447.283 260.064, 443.269 279.972, 440.411 317.330 C 438.911 336.948, 438.825 343.067, 439.801 360.812 C 440.426 372.170, 440.614 381.779, 440.219 382.166 C 439.823 382.552, 437.700 382.018, 435.500 380.979 C 425.338 376.179, 414.476 376.094, 405.174 380.743 C 398.744 383.956, 394.630 388.896, 391.898 396.683 C 390.116 401.762, 389.916 404.212, 390.324 416 C 390.803 429.840, 391.953 435.544, 397.283 450.525 C 400.208 458.744, 406.183 470.578, 410.698 477.094 C 418.977 489.041, 423.053 499.272, 427.904 520.279 C 428.511 522.907, 429.473 533.032, 430.042 542.779 C 431.666 570.613, 434.286 585.082, 440.405 600 C 445.679 612.858, 450.037 620.681, 454.552 625.393 C 457.079 628.030, 459.001 630.288, 458.823 630.411 C 457.030 631.650, 434.658 633.308, 414.500 633.694 C 392.015 634.125, 387.188 633.908, 366.513 631.533 C 341.213 628.626, 333.745 628.760, 325.500 632.268 C 319.235 634.933, 303.083 635.388, 298.412 633.030 C 290.880 629.227, 278.877 620.722, 276.329 617.382 C 274.773 615.343, 272.080 612.285, 270.345 610.587 C 265.357 605.707, 258.332 594.541, 251.840 581.171 C 245.913 568.966, 245.847 568.735, 245.319 558.171 L 244.786 547.500 251.643 540.389 C 265.241 526.288, 276.357 513.158, 278.476 508.692 C 279.373 506.802, 282.171 502.837, 284.695 499.880 C 287.219 496.924, 290.107 492.584, 291.113 490.237 C 292.163 487.787, 296.076 482.889, 300.301 478.735 C 307.124 472.027, 311.055 469.074, 320.907 463.256 C 323.928 461.472, 325.556 459.258, 328.853 452.450 C 334.044 441.731, 334.192 437.819, 329.722 429.517 C 325.608 421.878, 323.488 420.770, 314.500 421.563 C 302.253 422.643, 290.943 429.393, 283.703 439.943 C 275.017 452.600, 263.207 455.854, 250.213 449.168 C 242.709 445.308, 241.981 443.838, 242.052 432.685 C 242.118 422.210, 248.052 400.754, 255.239 385 C 256.118 383.075, 257.790 379.266, 258.957 376.535 C 260.123 373.804, 261.417 371.329, 261.832 371.035 C 262.620 370.476, 273.282 353.135, 278.147 344.500 C 282.412 336.929, 281.704 333.082, 275.266 328.837 C 272.011 326.691, 264.562 326.408, 260.365 328.272 C 255.835 330.283, 246.257 336.797, 244.814 338.847 C 244.091 339.874, 241.475 343.062, 239 345.931 C 234.286 351.396, 225.198 366.074, 219.881 376.810 L 216.756 383.119 214.410 380.916 C 211.022 377.733, 202.772 377.063, 199.177 379.680 C 194.278 383.245, 193.683 383.461, 194.872 381.240 C 195.461 380.139, 196.653 377.047, 197.522 374.369 C 198.390 371.691, 199.514 368.600, 200.019 367.500 C 203.711 359.460, 208.300 319.741, 206.590 310.626 C 205.181 303.115, 196.642 300.999, 187.050 305.782 C 182.688 307.957, 180.653 309.880, 176.864 315.407 C 167.877 328.514, 163.093 344.741, 159.028 375.902 C 158.341 381.172, 157.441 383.966, 155.905 385.601 C 153.319 388.354, 146.013 391.006, 141.072 390.985 C 132.924 390.952, 129.572 386.525, 127.379 372.904 C 125.383 360.506, 122.285 351.894, 116.727 343.293 C 111.589 335.345, 107.871 332.734, 101.500 332.601 C 86.949 332.299, 83 345.525, 88.391 376.509 C 89.825 384.754, 92.092 397.350, 93.428 404.500 C 96.661 421.807, 96.915 423.709, 97.925 438.118 C 98.864 451.522, 97.979 472.379, 95.554 494 C 94.721 501.425, 94.031 508.231, 94.020 509.125 C 94.008 510.099, 92.873 510.975, 91.188 511.312 C 89.175 511.715, 87.418 513.382, 84.997 517.187 C 79.011 526.594, 69.959 543.153, 67.381 549.413 C 66.001 552.761, 63.953 557.511, 62.829 559.968 C 53.567 580.214, 50.966 606.371, 55.617 632.500 C 59.040 651.732, 60.960 667.140, 60.975 675.500 C 60.988 682.735, 59.090 699.002, 56.542 713.500 C 53.436 731.168, 53.578 739.397, 57.230 753.500 C 59.410 761.917, 61.003 765.562, 68.092 778.353 C 74.662 790.206, 99.157 814.526, 110.078 820.039 C 113.241 821.636, 118.404 824.746, 121.550 826.950 C 124.697 829.154, 129.666 831.854, 132.594 832.949 C 135.521 834.044, 141.647 836.688, 146.208 838.825 C 160.517 845.527, 166.488 847.253, 192.227 852.121 C 211.637 855.791, 209.705 855.469, 224 857.422 C 235.624 859.010, 250.162 862.083, 257.500 864.503 C 259.700 865.228, 263.975 866.358, 267 867.014 C 278.567 869.522, 295.327 879.293, 307.114 890.400 C 318.839 901.448, 331.606 922.577, 334.522 935.759 C 335.343 939.466, 336.697 944.975, 337.532 948 C 338.368 951.025, 339.531 958, 340.117 963.500 C 341.977 980.952, 337.608 996.834, 329.500 1002.095 C 318.610 1009.161, 304.513 1015.380, 282.500 1022.829 C 280.460 1023.519, 376.529 1023.789, 582.866 1023.672 L 886.233 1023.500 889.144 1015 C 895.502 996.441, 898.536 982.576, 901.072 960.500 C 903.740 937.280, 900.293 912.783, 890.635 886.321 C 888.190 879.622, 885.881 872.647, 885.504 870.821 C 885.126 868.994, 884.170 865.531, 883.378 863.125 C 881.090 856.169, 880.595 838.850, 881.983 814.272 C 883.714 783.612, 882.320 775.284, 873.329 762.587 C 868.479 755.739, 851.208 739.192, 842.171 732.736 C 838.141 729.856, 832.516 725.686, 829.671 723.469 C 826.827 721.253, 822.474 718.262, 819.999 716.823 C 817.523 715.384, 814.641 713.261, 813.594 712.104 C 812.547 710.947, 811.258 710, 810.729 710 C 810.201 710, 806.783 708.029, 803.134 705.621 C 793.658 699.365, 788.579 697, 784.622 697 C 777.347 697, 777.576 696.366, 789.088 684.664 C 795.127 678.524, 801.558 671.250, 803.379 668.500 C 812.668 654.473, 814.815 650.518, 818.488 640.681 L 822.476 630 831.488 629.956 C 847.706 629.878, 857.894 626.694, 867.999 618.547 C 877.703 610.722, 877.247 611.313, 883.465 598.500 C 887.564 590.054, 889.744 583.670, 892.856 571 C 895.085 561.925, 897.342 551.800, 897.870 548.500 C 899.812 536.376, 902.272 529.300, 914.558 500.500 C 926.809 471.780, 930.086 454.589, 926.661 437 C 925.054 428.751, 924.887 428.484, 916.500 420.770 C 908.530 413.439, 905.192 412.211, 890.660 411.267 L 881.819 410.692 882.487 406.235 C 882.855 403.784, 884.255 398.412, 885.598 394.297 C 891.024 377.674, 897.137 349.283, 899.476 329.837 C 901.245 315.134, 901.550 276.418, 899.986 265 C 898.006 250.543, 896.191 238.477, 895.622 236 C 895.307 234.625, 894.534 231.250, 893.906 228.500 C 892.874 223.987, 889.054 210.389, 887.024 204 C 881.756 187.423, 866.970 158.125, 857.826 146.142 C 848.909 134.458, 839.650 123.853, 832.924 117.621 C 824.515 109.829, 807.918 97.034, 802.867 94.449 C 801.015 93.501, 797.925 91.498, 796 89.997 C 788.956 84.504, 759.719 69.807, 745 64.359 C 741.425 63.036, 737.600 61.525, 736.500 61.001 C 734.022 59.819, 721.797 56.459, 712.601 54.432 C 708.807 53.596, 704.948 52.508, 704.026 52.014 C 701.793 50.819, 681.049 48.138, 669.632 47.569 C 664.610 47.318, 655.775 47.718, 650 48.457" stroke="none" fill="#000000" fill-rule="evenodd"/><path d="M 0 512 L 0 1024 139.250 1023.989 C 254.806 1023.980, 279.266 1023.743, 283 1022.598 C 300.183 1017.327, 318.416 1009.287, 329.500 1002.095 C 337.608 996.834, 341.977 980.952, 340.117 963.500 C 339.531 958, 338.368 951.025, 337.532 948 C 336.697 944.975, 335.343 939.466, 334.522 935.759 C 331.606 922.577, 318.839 901.448, 307.114 890.400 C 295.327 879.293, 278.567 869.522, 267 867.014 C 263.975 866.358, 259.700 865.228, 257.500 864.503 C 250.162 862.083, 235.624 859.010, 224 857.422 C 209.705 855.469, 211.637 855.791, 192.227 852.121 C 166.488 847.253, 160.517 845.527, 146.208 838.825 C 141.647 836.688, 135.521 834.044, 132.594 832.949 C 129.666 831.854, 124.697 829.154, 121.550 826.950 C 118.404 824.746, 113.241 821.636, 110.078 820.039 C 99.157 814.526, 74.662 790.206, 68.092 778.353 C 61.003 765.562, 59.410 761.917, 57.230 753.500 C 53.578 739.397, 53.436 731.168, 56.542 713.500 C 59.090 699.002, 60.988 682.735, 60.975 675.500 C 60.960 667.140, 59.040 651.732, 55.617 632.500 C 50.966 606.371, 53.567 580.214, 62.829 559.968 C 63.953 557.511, 66.001 552.761, 67.381 549.413 C 69.959 543.153, 79.011 526.594, 84.997 517.187 C 87.418 513.382, 89.175 511.715, 91.188 511.312 C 92.873 510.975, 94.008 510.099, 94.020 509.125 C 94.031 508.231, 94.721 501.425, 95.554 494 C 97.979 472.379, 98.864 451.522, 97.925 438.118 C 96.915 423.709, 96.661 421.807, 93.428 404.500 C 92.092 397.350, 89.825 384.754, 88.391 376.509 C 83 345.525, 86.949 332.299, 101.500 332.601 C 107.871 332.734, 111.589 335.345, 116.727 343.293 C 122.285 351.894, 125.383 360.506, 127.379 372.904 C 129.572 386.525, 132.924 390.952, 141.072 390.985 C 146.013 391.006, 153.319 388.354, 155.905 385.601 C 157.441 383.966, 158.341 381.172, 159.028 375.902 C 163.093 344.741, 167.877 328.514, 176.864 315.407 C 180.653 309.880, 182.688 307.957, 187.050 305.782 C 196.642 300.999, 205.181 303.115, 206.590 310.626 C 208.300 319.741, 203.711 359.460, 200.019 367.500 C 199.514 368.600, 198.390 371.691, 197.522 374.369 C 196.653 377.047, 195.461 380.139, 194.872 381.240 C 193.683 383.461, 194.278 383.245, 199.177 379.680 C 202.772 377.063, 211.022 377.733, 214.410 380.916 L 216.756 383.119 219.881 376.810 C 225.198 366.074, 234.286 351.396, 239 345.931 C 241.475 343.062, 244.091 339.874, 244.814 338.847 C 246.257 336.797, 255.835 330.283, 260.365 328.272 C 264.562 326.408, 272.011 326.691, 275.266 328.837 C 281.704 333.082, 282.412 336.929, 278.147 344.500 C 273.282 353.135, 262.620 370.476, 261.832 371.035 C 261.417 371.329, 260.123 373.804, 258.957 376.535 C 257.790 379.266, 256.118 383.075, 255.239 385 C 248.052 400.754, 242.118 422.210, 242.052 432.685 C 241.981 443.838, 242.709 445.308, 250.213 449.168 C 263.207 455.854, 275.017 452.600, 283.703 439.943 C 290.943 429.393, 302.253 422.643, 314.500 421.563 C 323.488 420.770, 325.608 421.878, 329.722 429.517 C 334.192 437.819, 334.044 441.731, 328.853 452.450 C 325.556 459.258, 323.928 461.472, 320.907 463.256 C 311.055 469.074, 307.124 472.027, 300.301 478.735 C 296.076 482.889, 292.163 487.787, 291.113 490.237 C 290.107 492.584, 287.219 496.924, 284.695 499.880 C 282.171 502.837, 279.373 506.802, 278.476 508.692 C 276.357 513.158, 265.241 526.288, 251.643 540.389 L 244.786 547.500 245.319 558.171 C 245.847 568.735, 245.913 568.966, 251.840 581.171 C 258.332 594.541, 265.357 605.707, 270.345 610.587 C 272.080 612.285, 274.773 615.343, 276.329 617.382 C 278.877 620.722, 290.880 629.227, 298.412 633.030 C 303.083 635.388, 319.235 634.933, 325.500 632.268 C 333.745 628.760, 341.213 628.626, 366.513 631.533 C 387.188 633.908, 392.015 634.125, 414.500 633.694 C 434.658 633.308, 457.030 631.650, 458.823 630.411 C 459.001 630.288, 457.079 628.030, 454.552 625.393 C 450.037 620.681, 445.679 612.858, 440.405 600 C 434.286 585.082, 431.666 570.613, 430.042 542.779 C 429.473 533.032, 428.511 522.907, 427.904 520.279 C 423.053 499.272, 418.977 489.041, 410.698 477.094 C 406.183 470.578, 400.208 458.744, 397.283 450.525 C 391.953 435.544, 390.803 429.840, 390.324 416 C 389.916 404.212, 390.116 401.762, 391.898 396.683 C 394.630 388.896, 398.744 383.956, 405.174 380.743 C 414.476 376.094, 425.338 376.179, 435.500 380.979 C 437.700 382.018, 439.823 382.552, 440.219 382.166 C 440.614 381.779, 440.426 372.170, 439.801 360.812 C 438.825 343.067, 438.911 336.948, 440.411 317.330 C 443.269 279.972, 447.283 260.064, 459.548 222.406 C 464.079 208.496, 479.091 176.524, 485.708 166.690 C 487.612 163.861, 490.712 158.915, 492.597 155.699 C 494.482 152.484, 499.067 146.173, 502.788 141.676 C 506.508 137.179, 510.322 132.287, 511.264 130.804 C 514.316 125.997, 545.357 95.873, 549.996 93.217 C 552.473 91.798, 556.525 88.784, 559 86.518 C 561.475 84.253, 568 79.992, 573.500 77.051 C 579 74.110, 584.241 71.067, 585.147 70.289 C 590.432 65.754, 610.704 57.646, 629.683 52.475 C 641.996 49.121, 662.437 46.675, 671.500 47.470 C 684.454 48.608, 702.323 51.103, 704.020 52.011 C 704.946 52.506, 708.807 53.596, 712.601 54.432 C 721.797 56.459, 734.022 59.819, 736.500 61.001 C 737.600 61.525, 741.425 63.036, 745 64.359 C 759.719 69.807, 788.956 84.504, 796 89.997 C 797.925 91.498, 801.015 93.501, 802.867 94.449 C 807.918 97.034, 824.515 109.829, 832.924 117.621 C 839.650 123.853, 848.909 134.458, 857.826 146.142 C 866.970 158.125, 881.756 187.423, 887.024 204 C 889.054 210.389, 892.874 223.987, 893.906 228.500 C 894.534 231.250, 895.307 234.625, 895.622 236 C 896.191 238.477, 898.006 250.543, 899.986 265 C 901.550 276.418, 901.245 315.134, 899.476 329.837 C 897.137 349.283, 891.024 377.674, 885.598 394.297 C 884.255 398.412, 882.855 403.784, 882.487 406.235 L 881.819 410.692 890.660 411.267 C 905.192 412.211, 908.530 413.439, 916.500 420.770 C 924.887 428.484, 925.054 428.751, 926.661 437 C 930.086 454.589, 926.809 471.780, 914.558 500.500 C 902.272 529.300, 899.812 536.376, 897.870 548.500 C 897.342 551.800, 895.085 561.925, 892.856 571 C 889.744 583.670, 887.564 590.054, 883.465 598.500 C 877.247 611.313, 877.703 610.722, 867.999 618.547 C 857.894 626.694, 847.706 629.878, 831.488 629.956 L 822.476 630 818.488 640.681 C 814.815 650.518, 812.668 654.473, 803.379 668.500 C 801.558 671.250, 795.127 678.524, 789.088 684.664 C 777.576 696.366, 777.347 697, 784.622 697 C 788.579 697, 793.658 699.365, 803.134 705.621 C 806.783 708.029, 810.201 710, 810.729 710 C 811.258 710, 812.547 710.947, 813.594 712.104 C 814.641 713.261, 817.523 715.384, 819.999 716.823 C 822.474 718.262, 826.827 721.253, 829.671 723.469 C 832.516 725.686, 838.141 729.856, 842.171 732.736 C 851.208 739.192, 868.479 755.739, 873.329 762.587 C 882.320 775.284, 883.714 783.612, 881.983 814.272 C 880.595 838.850, 881.090 856.169, 883.378 863.125 C 884.170 865.531, 885.126 868.994, 885.504 870.821 C 885.881 872.647, 888.190 879.622, 890.635 886.321 C 900.293 912.783, 903.740 937.280, 901.072 960.500 C 898.536 982.576, 895.502 996.442, 889.144 1015 L 886.232 1023.500 954.366 1023.759 C 991.840 1023.901, 1023.063 1023.803, 1023.750 1023.540 C 1024.748 1023.159, 1025 919.835, 1025 511.531 L 1025 0 512.500 0 L 0 0 0 512 M 0.496 512.500 C 0.496 794.100, 0.610 909.151, 0.750 768.168 C 0.890 627.186, 0.890 396.786, 0.750 256.168 C 0.610 115.551, 0.496 230.900, 0.496 512.500" stroke="none" fill="#ffffff" fill-rule="evenodd"/></svg>