<svg version="1.0" xmlns="http://www.w3.org/2000/svg"
 width="1024.000000pt" height="1024.000000pt" viewBox="0 0 1024.000000 1024.000000"
 preserveAspectRatio="xMidYMid meet">

<g transform="translate(0.000000,1024.000000) scale(0.100000,-0.100000)"
fill="#000000" stroke="none">
<path d="M6500 9755 c-209 -26 -565 -146 -649 -218 -9 -8 -61 -38 -116 -68
-55 -29 -120 -72 -145 -94 -25 -23 -65 -53 -90 -67 -46 -27 -357 -328 -387
-376 -10 -15 -48 -64 -85 -109 -37 -45 -83 -108 -102 -140 -19 -32 -50 -82
-69 -110 -66 -98 -216 -418 -262 -557 -122 -377 -162 -576 -191 -949 -15 -196
-16 -258 -6 -435 6 -114 8 -210 4 -214 -4 -4 -25 2 -47 12 -102 48 -210 49
-303 3 -65 -33 -106 -82 -133 -160 -18 -51 -20 -75 -16 -193 5 -138 17 -195
70 -345 29 -82 89 -201 134 -266 57 -83 119 -214 140 -300 37 -147 44 -190 53
-359 11 -187 33 -351 59 -443 43 -148 126 -318 187 -381 25 -26 44 -49 42 -50
-18 -13 -241 -29 -443 -33 -225 -4 -273 -2 -480 22 -253 29 -328 27 -410 -8
-63 -26 -224 -31 -271 -7 -75 38 -195 123 -221 156 -15 21 -42 51 -60 68 -49
49 -120 161 -185 294 -59 122 -60 125 -65 230 l-5 107 68 71 c136 141 248 272
269 317 9 19 37 59 62 88 25 30 54 73 64 97 11 24 50 73 92 115 68 67 108 96
206 154 30 18 47 40 80 109 51 107 53 146 8 229 -41 76 -62 87 -152 79 -122
-10 -236 -78 -308 -183 -87 -127 -205 -160 -335 -93 -75 39 -82 54 -81 165 0
105 60 319 131 477 9 19 26 57 38 85 11 27 24 52 28 55 8 5 115 179 163 265
43 76 36 114 -28 157 -33 21 -107 24 -149 5 -46 -20 -141 -85 -156 -105 -7
-11 -33 -43 -58 -71 -47 -55 -138 -202 -191 -309 l-31 -63 -24 22 c-34 32
-116 38 -152 12 -49 -35 -55 -38 -43 -15 6 11 18 42 26 68 9 27 20 58 25 69
37 80 83 478 66 569 -14 75 -100 96 -196 48 -43 -22 -63 -41 -101 -96 -90
-131 -138 -293 -179 -605 -7 -53 -16 -81 -31 -97 -26 -28 -99 -54 -148 -54
-82 0 -115 45 -137 181 -20 124 -51 210 -107 296 -51 80 -88 106 -152 107
-146 3 -185 -129 -131 -439 14 -83 37 -208 50 -280 33 -173 35 -192 45 -336
10 -134 1 -343 -23 -559 -9 -74 -16 -142 -16 -151 0 -10 -11 -19 -28 -22 -20
-4 -38 -21 -62 -59 -60 -94 -150 -260 -176 -322 -14 -34 -34 -81 -46 -106 -92
-202 -118 -464 -72 -725 34 -192 54 -346 54 -430 0 -72 -19 -235 -45 -380 -31
-177 -29 -259 7 -400 22 -84 38 -121 109 -249 66 -118 311 -361 420 -416 31
-16 83 -47 115 -70 31 -22 81 -49 110 -59 29 -11 90 -38 136 -59 143 -67 203
-85 460 -133 194 -37 175 -34 318 -53 116 -16 262 -47 335 -71 22 -7 65 -19
95 -25 116 -25 283 -123 401 -234 117 -110 245 -322 274 -454 8 -37 22 -92 30
-122 9 -30 20 -100 26 -155 19 -175 -25 -333 -106 -386 -109 -71 -250 -133
-470 -207 -20 -7 940 -10 3004 -9 l3033 2 29 85 c64 186 94 324 120 545 26
232 -8 477 -105 742 -24 67 -47 137 -51 155 -4 18 -13 53 -21 77 -23 69 -28
242 -14 488 17 307 3 390 -87 517 -48 69 -221 234 -311 299 -41 28 -97 70
-125 92 -29 22 -72 52 -97 67 -25 14 -54 35 -64 47 -11 12 -23 21 -29 21 -5 0
-39 20 -76 44 -94 62 -145 86 -185 86 -73 0 -70 6 45 123 60 62 125 135 143
162 93 140 114 180 151 278 l40 107 90 0 c162 1 264 33 365 115 97 78 92 72
155 200 41 84 62 148 94 275 22 91 44 192 50 225 19 121 44 192 167 480 122
287 155 459 121 635 -16 82 -18 85 -102 162 -80 74 -113 86 -258 95 l-89 6 7
45 c4 24 18 78 31 119 54 166 115 450 139 645 17 147 20 534 5 648 -20 145
-38 265 -44 290 -3 14 -11 48 -17 75 -10 45 -48 181 -69 245 -52 166 -200 459
-292 579 -89 116 -181 222 -249 285 -84 78 -250 206 -300 232 -19 9 -50 29
-69 44 -70 55 -363 202 -510 256 -36 14 -74 29 -85 34 -25 12 -147 45 -239 66
-38 8 -77 19 -86 24 -22 12 -230 39 -344 44 -50 3 -138 -1 -196 -9z"/>
</g>
</svg>
